HIERARCHY
ROOT Hips
{
	OFFSET 0.00000 0.00000 0.00000
	CHANNELS 6 Xposition Yposition Zposition Zrotation Yrotation Xrotation 
	JOINT LHipJoint
	{
		OFFSET 0 0 0
		CHANNELS 3 Zrotation Yrotation Xrotation
		JOINT LeftUpLeg
		{
			OFFSET 1.76014 -1.80163 0.38499
			CHANNELS 3 Zrotation Yrotation Xrotation
			JOINT LeftLeg
			{
				OFFSET 2.46817 -6.78126 0.00000
				CHANNELS 3 Zrotation Yrotation Xrotation
				JOINT LeftFoot
				{
					OFFSET 2.79348 -7.67503 0.00000
					CHANNELS 3 Zrotation Yrotation Xrotation
					JOINT LeftToeBase
					{
						OFFSET 0.09421 -0.25885 1.91403
						CHANNELS 3 Zrotation Yrotation Xrotation
						End Site
						{
							OFFSET 0.00000 -0.00000 0.97975
						}
					}
				}
			}
		}
	}
	JOINT RHipJoint
	{
		OFFSET 0 0 0
		CHANNELS 3 Zrotation Yrotation Xrotation
		JOINT RightUpLeg
		{
			OFFSET -1.77926 -1.80163 0.38499
			CHANNELS 3 Zrotation Yrotation Xrotation
			JOINT RightLeg
			{
				OFFSET -2.51996 -6.92353 0.00000
				CHANNELS 3 Zrotation Yrotation Xrotation
				JOINT RightFoot
				{
					OFFSET -2.76109 -7.58603 0.00000
					CHANNELS 3 Zrotation Yrotation Xrotation
					JOINT RightToeBase
					{
						OFFSET -0.08067 -0.22163 1.86812
						CHANNELS 3 Zrotation Yrotation Xrotation
						End Site
						{
							OFFSET -0.00000 -0.00000 0.95558
						}
					}
				}
			}
		}
	}
	JOINT LowerBack
	{
		OFFSET 0 0 0
		CHANNELS 3 Zrotation Yrotation Xrotation
		JOINT Spine
		{
			OFFSET 0.05537 1.92033 -0.03713
			CHANNELS 3 Zrotation Yrotation Xrotation
			JOINT Spine1
			{
				OFFSET 0.04452 1.90073 0.10860
				CHANNELS 3 Zrotation Yrotation Xrotation
				JOINT Neck
				{
					OFFSET 0 0 0
					CHANNELS 3 Zrotation Yrotation Xrotation
					JOINT Neck1
					{
						OFFSET 0.00903 1.74649 0.02074
						CHANNELS 3 Zrotation Yrotation Xrotation
						JOINT Head
						{
							OFFSET -0.08608 1.67844 -0.12081
							CHANNELS 3 Zrotation Yrotation Xrotation
							End Site
							{
								OFFSET -0.03521 1.83380 -0.05059
							}
						}
					}
				}
				JOINT LeftShoulder
				{
					OFFSET 0 0 0
					CHANNELS 3 Zrotation Yrotation Xrotation
					JOINT LeftArm
					{
						OFFSET 3.28197 0.84325 -0.19106
						CHANNELS 3 Zrotation Yrotation Xrotation
						JOINT LeftForeArm
						{
							OFFSET 5.24318 -0.00000 -0.00000
							CHANNELS 3 Zrotation Yrotation Xrotation
							JOINT LeftHand
							{
								OFFSET 2.98999 -0.00000 0.00000
								CHANNELS 3 Zrotation Yrotation Xrotation
								JOINT LeftFingerBase
								{
									OFFSET 0 0 0
									CHANNELS 3 Zrotation Yrotation Xrotation
									JOINT LeftHandIndex1
									{
										OFFSET 0.72674 -0.00000 0.00000
										CHANNELS 3 Zrotation Yrotation Xrotation
										End Site
										{
											OFFSET 0.58592 -0.00000 0.00000
										}
									}
								}
								JOINT LThumb
								{
									OFFSET 0 0 0
									CHANNELS 3 Zrotation Yrotation Xrotation
									End Site
									{
										OFFSET 0.59487 -0.00000 0.59487
									}
								}
							}
						}
					}
				}
				JOINT RightShoulder
				{
					OFFSET 0 0 0
					CHANNELS 3 Zrotation Yrotation Xrotation
					JOINT RightArm
					{
						OFFSET -3.30963 0.78377 0.14264
						CHANNELS 3 Zrotation Yrotation Xrotation
						JOINT RightForeArm
						{
							OFFSET -5.37045 -0.00000 0.00000
							CHANNELS 3 Zrotation Yrotation Xrotation
							JOINT RightHand
							{
								OFFSET -2.92792 -0.00000 0.00000
								CHANNELS 3 Zrotation Yrotation Xrotation
								JOINT RightFingerBase
								{
									OFFSET 0 0 0
									CHANNELS 3 Zrotation Yrotation Xrotation
									JOINT RightHandIndex1
									{
										OFFSET -0.78450 -0.00000 0.00000
										CHANNELS 3 Zrotation Yrotation Xrotation
										End Site
										{
											OFFSET -0.63248 -0.00000 0.00000
										}
									}
								}
								JOINT RThumb
								{
									OFFSET 0 0 0
									CHANNELS 3 Zrotation Yrotation Xrotation
									End Site
									{
										OFFSET -0.64214 -0.00000 0.64214
									}
								}
							}
						}
					}
				}
			}
		}
	}
}
MOTION
Frames: 16
Frame Time: .0083333
0.5911 18.209 0.9416 0 0 0 0 0 0 -21 0 0 0 0 0 0 0 0 0 0 0 0 0 0 21 0 0 0 0 0 0 0 0 0 0 0 0 0 0 0 0 0 0 0 0 0 0 -16 0 0 21 0 0 11 0 0 0 -8 0 0 0 0 0 0 0 0 0 0 0 0 0 0 0 0 0 0 0 0 8 0 0 0 0 0 0 0 0 0 0 0 0 0 0 0 0 0
0.5911 18.2090 0.9416 -0.7084 -0.5417 27.4371 0.0000 0.0000 0.0000 -9.2165 -27.4256 -25.3020 0.8594 5.9116 16.5280 -1.0043 18.2511 -12.7806 0.2754 -3.3753 -9.3254 0.0000 0.0000 0.0000 7.0770 32.0487 -24.6945 -0.5344 -4.6843 13.0104 0.7915 -22.7610 -26.2275 -1.3094 -7.2485 20.4537 5.8151 -0.6686 15.4007 1.6426 0.6467 -6.7677 -1.5942 -0.2061 -16.4593 2.9751 0.6608 -12.4415 -6.8174 0.7289 0.3271 -2.7340 0.1426 2.3526 0.0000 -0.0000 0.0000 -95.3319 20.7463 -14.1061 40.0138 -48.0781 -18.4495 -0.0000 0.0000 -37.1147 38.8065 31.5203 22.8039 -7.1250 0.0000 -0.0000 10.4414 67.9132 5.7737 0.0000 -0.0000 0.0000 94.5219 -20.1264 -45.2621 -44.6391 50.5904 -21.9595 0.0000 0.0000 166.8070 -5.9185 4.0123 -0.4156 7.1250 -0.0000 -0.0000 15.5360 -25.8848 7.4564
0.5906 18.2077 0.9417 -0.6016 -0.6194 27.4528 0.0000 0.0000 0.0000 -9.3727 -27.3773 -25.2648 0.8503 5.8811 16.4398 -1.0040 18.2478 -12.7767 0.2701 -3.3428 -9.2347 0.0000 0.0000 0.0000 6.8964 32.0995 -24.8175 -0.5474 -4.7398 13.1679 0.7489 -22.6351 -26.3722 -1.3794 -7.4320 21.0016 5.6951 -0.6603 15.3685 1.6245 0.6229 -6.7162 -1.5415 -0.2027 -16.3754 3.0145 0.6702 -12.5079 -6.8724 0.7339 0.2660 -2.7599 0.1430 2.3458 -0.0000 -0.0000 0.0000 -95.3457 20.7239 -14.0335 39.7435 -47.9172 -18.2486 -0.0000 0.0000 -37.3355 38.4214 31.4572 22.4866 -7.1250 0.0000 -0.0000 9.8482 67.7237 5.4008 -0.0000 -0.0000 0.0000 94.5588 -20.0272 -45.3175 -44.6978 50.6196 -22.0049 0.0000 0.0000 166.6290 -5.9216 4.5564 -0.4721 7.1250 -0.0000 -0.0000 15.4667 -25.3577 7.6190
0.5914 18.2071 0.9403 -0.4979 -0.6989 27.4594 0.0000 0.0000 0.0000 -9.4907 -27.4180 -25.3222 0.8614 5.9184 16.5478 -1.0042 18.2676 -12.8488 0.2715 -3.3520 -9.2603 0.0000 0.0000 0.0000 6.7635 32.0534 -24.8115 -0.5402 -4.7091 13.0808 0.7592 -22.6358 -26.2841 -1.4034 -7.4935 21.1860 5.5793 -0.6506 15.3826 1.6152 0.6080 -6.6796 -1.4832 -0.1964 -16.3391 3.0443 0.6811 -12.5284 -6.9500 0.7431 0.1902 -2.7908 0.1456 2.3262 0.0000 0.0000 0.0000 -95.3984 20.6815 -14.0896 39.4263 -47.7263 -18.0136 -0.0000 0.0000 -37.3750 38.2385 31.3398 22.2865 -7.1250 0.0000 -0.0000 9.5901 67.5370 5.2174 0.0000 0.0000 0.0000 94.5523 -19.9670 -45.3605 -44.6895 50.6154 -21.9985 0.0000 0.0000 166.4190 -5.9108 5.0149 -0.5185 7.1250 -0.0000 -0.0000 15.4198 -24.9135 7.7602
0.5936 18.2097 0.9352 -0.6901 -0.5485 27.4162 0.0000 0.0000 0.0000 -9.2592 -27.3914 -25.3510 0.8671 5.9376 16.6033 -0.9894 18.1708 -12.8799 0.2598 -3.2791 -9.0568 0.0000 0.0000 0.0000 7.0559 32.0239 -24.7295 -0.5387 -4.7027 13.0626 0.7889 -22.7366 -26.2065 -1.3577 -7.3756 20.8330 5.8717 -0.7208 15.5088 1.7032 0.5997 -6.6427 -1.5449 -0.2249 -16.3786 3.0233 0.7085 -12.5396 -6.9726 0.7800 0.1245 -2.7916 0.1638 2.3082 0.0000 -0.0000 0.0000 -95.4553 20.6134 -14.2742 39.0672 -47.5075 -17.7483 -0.0000 0.0000 -37.1859 37.7869 31.4462 22.0223 -7.1250 0.0000 -0.0000 8.8654 67.5154 4.8162 0.0000 -0.0000 0.0000 94.5153 -19.9573 -45.3578 -44.6603 50.6010 -21.9759 0.0000 0.0000 166.0990 -6.1194 5.1852 -0.5551 7.1250 -0.0000 -0.0000 15.2482 -24.7473 7.7289
0.5953 18.2116 0.9321 -0.8343 -0.4054 27.4044 0.0000 0.0000 0.0000 -9.0800 -27.3685 -25.4087 0.8729 5.9568 16.6591 -0.9933 18.1473 -12.6784 0.2933 -3.4827 -9.6255 0.0000 0.0000 0.0000 7.2887 31.9534 -24.6845 -0.5363 -4.6923 13.0331 0.8151 -22.8191 -26.1267 -1.3132 -7.2585 20.4835 6.1233 -0.7801 15.5595 1.7831 0.5898 -6.5983 -1.5925 -0.2489 -16.3605 2.8963 0.7385 -12.6269 -6.9061 0.8333 0.0951 -2.7421 0.1908 2.3145 0.0000 -0.0000 0.0000 -95.4988 20.5177 -14.4100 38.7335 -47.3014 -17.5027 -0.0000 0.0000 -37.0178 37.4406 31.7208 21.9288 -7.1250 0.0000 -0.0000 8.2570 67.7111 4.5206 0.0000 -0.0000 0.0000 94.5411 -19.9663 -45.3889 -44.6337 50.5878 -21.9554 0.0000 0.0000 165.7440 -6.2622 5.1110 -0.5601 7.1250 -0.0000 -0.0000 15.1527 -24.8186 7.6509
0.5925 18.2100 0.9319 -0.7887 -0.5045 27.4215 0.0000 0.0000 0.0000 -9.1490 -27.3214 -25.4653 0.8785 5.9752 16.7125 -1.0097 18.2246 -12.5177 0.3456 -3.7772 -10.4507 0.0000 0.0000 0.0000 7.1816 32.0393 -24.7013 -0.5336 -4.6807 13.0000 0.8451 -22.9177 -26.0419 -1.3065 -7.2407 20.4306 6.0017 -0.7494 15.6015 1.8004 0.6092 -6.5816 -1.5102 -0.2257 -16.3643 2.8952 0.7646 -12.6912 -6.9528 0.8703 0.1127 -2.7567 0.2064 2.3351 0.0000 -0.0000 0.0000 -95.4949 20.4961 -14.4077 38.4554 -47.1277 -17.2985 -0.0000 0.0000 -37.0906 37.3263 31.9487 21.9738 -7.1250 0.0000 -0.0000 8.0130 67.9260 4.4254 0.0000 -0.0000 0.0000 94.6339 -20.0609 -45.4074 -44.6314 50.5866 -21.9536 0.0000 0.0000 165.3000 -6.3881 5.0917 -0.5693 7.1250 -0.0000 -0.0000 15.0631 -24.8366 7.5960
0.5863 18.2065 0.9334 -0.6961 -0.7184 27.4363 0.0000 0.0000 0.0000 -9.2945 -27.2515 -25.4735 0.8786 5.9756 16.7135 -1.0213 18.3278 -12.6040 0.3427 -3.7619 -10.4077 0.0000 0.0000 0.0000 6.9353 32.2915 -24.7533 -0.5354 -4.6885 13.0221 0.8325 -22.9243 -26.1651 -1.3166 -7.2676 20.5105 5.7235 -0.6662 15.6613 1.7946 0.6643 -6.5972 -1.3761 -0.1730 -16.4152 3.0152 0.7575 -12.5677 -7.1184 0.8480 0.0466 -2.8354 0.1932 2.2932 -0.0000 -0.0000 0.0000 -95.4992 20.5319 -14.4369 38.1542 -46.9375 -17.0782 -0.0000 0.0000 -37.1814 36.8986 31.8150 21.5935 -7.1250 0.0000 -0.0000 7.3977 67.6471 4.0372 -0.0000 -0.0000 0.0000 94.6640 -20.1673 -45.5623 -44.5402 50.5412 -21.8831 0.0000 0.0000 164.8230 -6.6426 5.1494 -0.5989 7.1250 -0.0000 -0.0000 14.8710 -24.7789 7.5131
0.5840 18.2048 0.9334 -0.6326 -0.8369 27.4384 0.0000 0.0000 0.0000 -9.3877 -27.2304 -25.4394 0.8730 5.9572 16.6602 -1.0327 18.4080 -12.6023 0.3417 -3.7561 -10.3916 0.0000 0.0000 0.0000 6.7904 32.4101 -24.8203 -0.5422 -4.7176 13.1047 0.8661 -23.0377 -26.0773 -1.2027 -6.9580 19.5910 5.5921 -0.6124 15.7055 1.7885 0.7102 -6.5945 -1.3226 -0.1392 -16.4359 3.0893 0.7366 -12.4347 -7.2416 0.8100 -0.0633 -2.8912 0.1744 2.2325 0.0000 -0.0000 0.0000 -95.4752 20.5491 -14.4444 37.8393 -46.7364 -16.8485 -0.0000 0.0000 -37.1217 36.5062 31.6816 21.2418 -7.1250 0.0000 -0.0000 6.8471 67.3802 3.6939 0.0000 -0.0000 0.0000 94.6436 -20.1371 -45.9162 -44.2993 50.4205 -21.6973 0.0000 0.0000 164.4520 -7.0864 5.1208 -0.6357 7.1250 -0.0000 -0.0000 14.5501 -24.8037 7.3317
0.5849 18.2053 0.9324 -0.6294 -0.8341 27.4922 0.0000 0.0000 0.0000 -9.3402 -27.2836 -25.4815 0.8695 5.9456 16.6266 -1.0370 18.4305 -12.5686 0.3343 -3.7160 -10.2790 0.0000 0.0000 0.0000 6.7611 32.3728 -24.9319 -0.5465 -4.7361 13.1574 0.8835 -23.0598 -25.9642 -1.1239 -6.7342 18.9301 5.6360 -0.6102 15.6915 1.8042 0.7240 -6.5873 -1.3336 -0.1358 -16.4176 3.0695 0.7315 -12.4253 -7.2506 0.8029 -0.1290 -2.8899 0.1715 2.2081 0.0000 -0.0000 0.0000 -95.4320 20.5532 -14.4363 37.5516 -46.5505 -16.6393 -0.0000 0.0000 -37.0598 36.7658 32.0171 21.6098 -7.1250 0.0000 -0.0000 7.1292 67.8275 3.9193 0.0000 -0.0000 0.0000 94.6040 -20.1017 -46.0576 -44.1619 50.3512 -21.5915 0.0000 0.0000 164.2120 -7.1670 5.4374 -0.6827 7.1250 -0.0000 -0.0000 14.4574 -24.4942 7.3895
0.5864 18.2063 0.9329 -0.5754 -0.8627 27.5147 0.0000 0.0000 0.0000 -9.4361 -27.2334 -25.4936 0.8678 5.9397 16.6094 -1.0384 18.4178 -12.4755 0.3499 -3.8004 -10.5157 0.0000 0.0000 0.0000 6.6767 32.3462 -24.9889 -0.5496 -4.7492 13.1945 0.8580 -22.9536 -25.9944 -1.1496 -6.8081 19.1480 5.6081 -0.6179 15.6725 1.8099 0.7039 -6.5387 -1.3065 -0.1393 -16.3467 3.0017 0.7464 -12.5205 -7.1706 0.8263 -0.1648 -2.8486 0.1842 2.2126 0.0000 -0.0000 0.0000 -95.3855 20.4836 -14.4631 37.2556 -46.3572 -16.4248 -0.0000 0.0000 -37.0589 36.9298 32.0938 21.7692 -7.1250 0.0000 -0.0000 7.3552 67.9622 4.0666 0.0000 -0.0000 0.0000 94.5513 -20.0201 -46.0291 -44.1571 50.3488 -21.5878 0.0000 0.0000 164.1210 -6.9993 6.1355 -0.7518 7.1250 -0.0000 -0.0000 14.5067 -23.8150 7.6525
0.5874 18.2066 0.9327 -0.5962 -0.8665 27.5234 0.0000 0.0000 0.0000 -9.4362 -27.1965 -25.5105 0.8691 5.9441 16.6223 -1.0511 18.4716 -12.3200 0.4110 -4.1156 -11.4021 0.0000 0.0000 0.0000 6.6817 32.3519 -25.0082 -0.5499 -4.7505 13.1984 0.8411 -22.8853 -26.0187 -1.2151 -6.9925 19.6931 5.6526 -0.6235 15.6671 1.8346 0.7073 -6.4952 -1.3050 -0.1386 -16.2898 2.9599 0.7463 -12.5926 -7.1364 0.8305 -0.1545 -2.8296 0.1858 2.2284 -0.0000 0.0000 0.0000 -95.3550 20.4535 -14.5411 37.0174 -46.2001 -16.2526 -0.0000 0.0000 -37.0522 36.8563 32.1135 21.7273 -7.1250 0.0000 -0.0000 7.2356 67.9609 4.0000 -0.0000 0.0000 0.0000 94.5077 -19.9802 -46.0582 -44.1079 50.3239 -21.5499 0.0000 0.0000 163.9600 -7.0359 6.7113 -0.8264 7.1250 -0.0000 -0.0000 14.4229 -23.2529 7.7990
0.5887 18.2070 0.9317 -0.6059 -0.8528 27.5353 0.0000 0.0000 0.0000 -9.4171 -27.2107 -25.5412 0.8711 5.9507 16.6414 -1.0504 18.4743 -12.3527 0.4007 -4.0640 -11.2569 0.0000 0.0000 0.0000 6.6953 32.3292 -25.0186 -0.5498 -4.7503 13.1976 0.8561 -22.9217 -25.9525 -1.2382 -7.0561 19.8817 5.7175 -0.6372 15.7059 1.8500 0.7088 -6.4942 -1.3243 -0.1442 -16.3140 3.0220 0.7596 -12.5415 -7.2233 0.8424 -0.1703 -2.8699 0.1903 2.2167 0.0000 -0.0000 0.0000 -95.3048 20.4773 -14.7097 36.7432 -46.0175 -16.0550 -0.0000 0.0000 -36.8642 36.5245 32.4523 21.6737 -7.1250 0.0000 -0.0000 6.6061 68.2278 3.6907 0.0000 -0.0000 0.0000 94.4696 -20.0191 -46.1590 -43.9837 50.2607 -21.4543 0.0000 0.0000 163.6100 -7.3941 6.8786 -0.8904 7.1250 -0.0000 -0.0000 14.1491 -23.0836 7.6985
0.5878 18.2061 0.9297 -0.6625 -0.8289 27.5315 0.0000 0.0000 0.0000 -9.3302 -27.2074 -25.5788 0.8744 5.9618 16.6737 -1.0307 18.3858 -12.5680 0.3323 -3.7047 -10.2473 0.0000 0.0000 0.0000 6.7596 32.3634 -25.0002 -0.5484 -4.7443 13.1807 0.8436 -22.9047 -26.0321 -1.2366 -7.0518 19.8690 5.8069 -0.6488 15.7859 1.8904 0.7259 -6.4913 -1.3331 -0.1439 -16.3615 3.0849 0.7840 -12.4788 -7.3368 0.8692 -0.2032 -2.9183 0.2018 2.1985 -0.0000 -0.0000 0.0000 -95.2391 20.4787 -14.8200 36.4081 -45.7918 -15.8143 -0.0000 0.0000 -36.6844 35.6567 32.4465 21.0521 -7.1250 0.0000 -0.0000 5.2856 67.9521 2.9181 -0.0000 -0.0000 0.0000 94.3862 -20.0451 -46.3343 -43.7500 50.1412 -21.2748 0.0000 0.0000 163.2210 -7.8811 6.8245 -0.9424 7.1250 -0.0000 -0.0000 13.8034 -23.1279 7.4846
0.5856 18.2054 0.9289 -0.7109 -0.8571 27.4969 0.0000 0.0000 0.0000 -9.2979 -27.1621 -25.5759 0.8783 5.9748 16.7113 -1.0403 18.4402 -12.5123 0.3484 -3.7925 -10.4935 0.0000 0.0000 0.0000 6.8136 32.4334 -24.9491 -0.5473 -4.7394 13.1667 0.8517 -22.9436 -26.0312 -1.1371 -6.7720 19.0416 5.8242 -0.6431 15.8864 1.9315 0.7514 -6.4759 -1.3032 -0.1319 -16.4056 3.0993 0.8083 -12.4574 -7.3823 0.9014 -0.2093 -2.9345 0.2169 2.1954 0.0000 -0.0000 0.0000 -95.1581 20.4904 -14.9212 36.0451 -45.5442 -15.5547 -0.0000 0.0000 -36.5094 34.4096 32.3215 20.1141 -7.1250 0.0000 -0.0000 3.4902 67.4336 1.8845 0.0000 -0.0000 0.0000 94.2947 -20.0756 -46.4387 -43.5171 50.0210 -21.0962 0.0000 0.0000 162.8140 -7.9456 6.8565 -0.9546 7.1250 -0.0000 -0.0000 13.7540 -23.0954 7.4669
0.5842 18.2050 0.9274 -0.7089 -0.8933 27.4469 0.0000 0.0000 0.0000 -9.3353 -27.1221 -25.5351 0.8804 5.9816 16.7310 -1.0450 18.4586 -12.4497 0.3753 -3.9346 -10.8928 0.0000 0.0000 0.0000 6.8270 32.4498 -24.9077 -0.5472 -4.7389 13.1654 0.8453 -22.9112 -26.0286 -1.1118 -6.6989 18.8263 5.7995 -0.6350 16.0133 1.9662 0.7721 -6.4676 -1.2554 -0.1187 -16.4754 3.0925 0.7965 -12.4154 -7.4343 0.8888 -0.2142 -2.9514 0.2098 2.1861 -0.0000 0.0000 0.0000 -95.0890 20.5300 -15.0511 35.7362 -45.3307 -15.3346 -0.0000 0.0000 -36.3322 33.7002 32.4509 19.6900 -7.1250 0.0000 -0.0000 2.4006 67.3563 1.2916 -0.0000 0.0000 0.0000 94.2188 -20.1403 -46.4998 -43.3419 49.9298 -20.9620 0.0000 0.0000 162.3690 -7.7083 7.0109 -0.9465 7.1250 -0.0000 -0.0000 13.9109 -22.9485 7.6056
